<?xml version="1.0" encoding="UTF-8"?>
<!-- Generator: visioncortex VTracer 0.6.3 -->
<svg version="1.1" xmlns="http://www.w3.org/2000/svg" width="1280" height="853">
<path d="M0 0 C422.4 0 844.8 0 1280 0 C1280 281.49 1280 562.98 1280 853 C857.6 853 435.2 853 0 853 C0 571.51 0 290.02 0 0 Z " fill="#F9FCFE" transform="translate(0,0)"/>
<path d="M0 0 C13.5 11.66 24.78 28.75 26.97 46.74 C27.08 48.45 27.16 50.16 27.22 51.87 C27.32 53.4 27.32 53.4 27.41 54.97 C28.09 73.88 22.5 91.43 9.66 105.43 C7.88 107.28 6.07 109.08 4.22 110.87 C3.28 111.79 3.28 111.79 2.32 112.73 C-10.23 124.18 -24.75 128.06 -41.31 128.11 C-43.31 128.12 -45.31 128.15 -47.3 128.18 C-67.81 128.26 -84.03 120.45 -98.54 106.13 C-100.07 104.44 -101.43 102.71 -102.78 100.87 C-103.35 100.09 -103.92 99.32 -104.52 98.52 C-115.98 81.87 -118.21 62.35 -115.32 42.75 C-112.88 31.09 -106.74 18.75 -98.78 9.87 C-98.11 9.08 -97.44 8.3 -96.75 7.49 C-72.17 -19.34 -28.56 -21.93 0 0 Z " fill="#0F1012" transform="translate(482.77734375,528.1328125)"/>
<path d="M0 0 C1.54 -0.02 1.54 -0.02 3.1 -0.04 C4.09 -0.04 5.08 -0.04 6.1 -0.04 C7.44 -0.05 7.44 -0.05 8.81 -0.06 C12.79 0.32 15.54 1.35 18.38 4.19 C19.75 7.89 19.55 11.81 19.58 15.71 C19.59 16.46 19.6 17.21 19.61 17.99 C19.64 20.47 19.67 22.94 19.69 25.42 C19.71 27.14 19.73 28.86 19.75 30.58 C19.81 35.11 19.86 39.63 19.91 44.16 C19.96 48.77 20.01 53.39 20.07 58.01 C20.18 67.07 20.28 76.13 20.38 85.19 C22.74 85.42 22.74 85.42 24.95 82.62 C25.99 81.48 27.03 80.34 28.06 79.19 C28.61 78.59 29.15 77.99 29.71 77.38 C33.05 73.69 36.35 69.97 39.6 66.21 C42.66 62.72 45.81 59.31 48.94 55.88 C51.66 52.87 54.34 49.82 57 46.75 C59.42 44 60.78 42.84 64.38 42.19 C67.18 42.07 69.95 42 72.75 41.98 C73.97 41.98 73.97 41.98 75.2 41.97 C76.91 41.96 78.61 41.95 80.32 41.95 C82.93 41.94 85.54 41.91 88.15 41.88 C89.81 41.87 91.47 41.86 93.13 41.86 C93.91 41.85 94.69 41.83 95.5 41.82 C100.88 41.84 100.88 41.84 103.36 43.56 C104.88 45.99 104.88 47.37 104.38 50.19 C102.43 52.58 102.43 52.58 99.81 55 C96.71 57.9 93.81 60.79 91.04 64.01 C86.73 69 82.04 73.57 77.34 78.19 C73.34 82.13 69.55 86.17 65.92 90.45 C64.48 92.07 62.98 93.49 61.38 94.94 C60.72 95.68 60.06 96.42 59.38 97.19 C59.72 100.49 61.15 102.5 63.18 105.06 C63.76 105.79 64.34 106.52 64.93 107.28 C65.55 108.05 66.17 108.83 66.81 109.62 C68.1 111.25 69.39 112.89 70.68 114.52 C71.31 115.31 71.94 116.11 72.6 116.94 C74.93 119.89 77.22 122.88 79.5 125.88 C83.09 130.55 86.74 135.16 90.44 139.75 C94.78 145.15 99.02 150.62 103.13 156.21 C104.76 158.37 106.41 160.48 108.12 162.57 C108.58 163.15 109.04 163.72 109.51 164.31 C110.8 165.91 112.1 167.49 113.41 169.08 C115.62 172.57 116.17 175.09 116.38 179.19 C114.2 181.37 109.08 180.38 106.05 180.39 C105.11 180.4 104.16 180.4 103.19 180.41 C101.2 180.42 99.2 180.42 97.2 180.43 C94.15 180.44 91.1 180.47 88.05 180.5 C86.11 180.51 84.17 180.51 82.23 180.52 C80.87 180.53 80.87 180.53 79.47 180.55 C74.62 180.54 71.29 180.39 67.38 177.19 C65.64 175.07 64.09 173.01 62.56 170.75 C62.13 170.13 61.7 169.51 61.25 168.87 C57.86 163.98 54.58 159.01 51.3 154.05 C48.79 150.32 46.14 146.7 43.47 143.08 C39.68 137.85 36.03 132.51 32.38 127.19 C27.37 127.93 25.05 130.91 22.07 134.78 C18.55 141.85 19.4 149.84 19.56 157.56 C19.59 160.16 19.6 162.77 19.6 165.37 C19.6 166.98 19.62 168.59 19.66 170.2 C19.69 173.29 19.54 175.8 18.33 178.67 C15.38 180.96 12.41 180.78 8.82 180.75 C8.08 180.76 7.34 180.77 6.58 180.77 C5.02 180.78 3.46 180.78 1.9 180.76 C-0.49 180.75 -2.86 180.78 -5.25 180.82 C-6.77 180.82 -8.29 180.82 -9.8 180.82 C-10.51 180.83 -11.22 180.84 -11.95 180.86 C-15.6 180.79 -17.42 180.35 -20.31 178.09 C-23.18 174.49 -23.25 172.71 -23.25 168.16 C-23.26 167.46 -23.27 166.77 -23.27 166.05 C-23.29 163.73 -23.27 161.4 -23.26 159.08 C-23.26 157.41 -23.27 155.74 -23.28 154.07 C-23.3 149.54 -23.28 145.01 -23.26 140.48 C-23.25 135.75 -23.26 131.01 -23.26 126.27 C-23.27 118.31 -23.25 110.35 -23.22 102.4 C-23.19 93.2 -23.19 84 -23.21 74.79 C-23.22 65.94 -23.22 57.09 -23.2 48.24 C-23.19 44.48 -23.19 40.71 -23.2 36.94 C-23.21 32.51 -23.2 28.07 -23.17 23.64 C-23.16 22.01 -23.16 20.38 -23.17 18.75 C-23.18 16.53 -23.16 14.31 -23.14 12.09 C-23.14 10.85 -23.13 9.6 -23.13 8.32 C-22.53 4.6 -21.61 3.42 -18.62 1.19 C-12.57 -0.29 -6.2 0 0 0 Z " fill="#0F1012" transform="translate(689.625,473.8125)"/>
<path d="M0 0 C3.95 1.89 7.98 3.97 10 8 C10.14 10.75 10.23 13.47 10.28 16.22 C10.31 17.44 10.31 17.44 10.34 18.68 C10.42 22.17 10.48 25.66 10.55 29.15 C10.6 31.69 10.66 34.24 10.72 36.78 C10.73 37.57 10.75 38.37 10.76 39.18 C10.76 43.22 10.76 43.22 12 47 C12.5 46.5 12.5 46.5 13 46 C14.34 45.9 15.69 45.88 17.04 45.88 C17.92 45.87 18.8 45.87 19.7 45.87 C21.16 45.88 21.16 45.88 22.65 45.88 C23.68 45.88 24.7 45.88 25.76 45.88 C29.22 45.88 32.69 45.88 36.15 45.89 C38.63 45.89 41.1 45.89 43.57 45.89 C48.91 45.89 54.25 45.89 59.59 45.89 C67.31 45.9 75.03 45.9 82.75 45.91 C95.27 45.91 107.79 45.92 120.31 45.92 C132.48 45.93 144.65 45.94 156.82 45.95 C157.57 45.95 158.32 45.95 159.09 45.95 C162.85 45.95 166.61 45.95 170.37 45.95 C201.58 45.96 232.79 45.98 264 46 C263.97 44.91 263.95 43.81 263.92 42.68 C263.83 38.61 263.77 34.54 263.73 30.47 C263.7 28.71 263.67 26.95 263.62 25.19 C263.56 22.65 263.53 20.12 263.51 17.58 C263.49 16.8 263.46 16.01 263.43 15.21 C263.43 10.97 263.6 9.49 266.41 6.09 C267.26 5.4 268.12 4.71 269 4 C269.66 3.34 270.32 2.68 271 2 C271.99 2 272.98 2 274 2 C274.08 9.38 274.13 16.77 274.16 24.15 C274.18 26.66 274.2 29.17 274.23 31.68 C274.26 35.29 274.28 38.91 274.29 42.53 C274.31 43.64 274.32 44.75 274.34 45.9 C274.34 54.29 273.5 62.11 267.5 68.44 C266.91 69.08 266.32 69.71 265.72 70.37 C260.34 75.47 254.67 75.15 247.63 75.21 C246.8 75.22 245.97 75.23 245.12 75.24 C242.38 75.27 239.65 75.29 236.92 75.32 C235.02 75.34 233.12 75.36 231.22 75.38 C226.23 75.43 221.24 75.48 216.25 75.53 C211.16 75.58 206.07 75.64 200.97 75.69 C190.98 75.8 180.99 75.9 171 76 C171 79.96 171 83.92 171 88 C173.55 88.09 173.55 88.09 176.14 88.18 C178.37 88.27 180.59 88.35 182.81 88.44 C183.93 88.48 185.05 88.52 186.21 88.56 C187.28 88.6 188.35 88.64 189.46 88.68 C190.45 88.72 191.44 88.76 192.46 88.79 C195 89 195 89 198 90 C199.37 92.73 199.13 94.98 199 98 C197.38 99.62 195.59 99.13 193.34 99.13 C191.83 99.14 191.83 99.14 190.29 99.15 C189.18 99.15 188.07 99.15 186.92 99.15 C185.75 99.15 184.59 99.15 183.39 99.16 C180.18 99.16 176.97 99.17 173.77 99.17 C171.09 99.17 168.42 99.17 165.74 99.18 C159.44 99.18 153.13 99.19 146.82 99.19 C140.31 99.18 133.79 99.2 127.28 99.21 C121.7 99.22 116.11 99.23 110.53 99.23 C107.19 99.23 103.85 99.23 100.51 99.24 C96.79 99.25 93.06 99.25 89.34 99.24 C87.68 99.25 87.68 99.25 85.98 99.26 C84.97 99.26 83.95 99.25 82.91 99.25 C81.59 99.25 81.59 99.25 80.24 99.25 C78 99 78 99 75 97 C75.19 94.12 75.19 94.12 76 91 C79.55 89.1 82.54 88.76 86.52 88.8 C87.54 88.81 88.56 88.82 89.62 88.82 C91.2 88.85 91.2 88.85 92.81 88.88 C93.89 88.88 94.96 88.89 96.07 88.9 C98.71 88.93 101.36 88.96 104 89 C103.67 84.71 103.34 80.42 103 76 C101.97 75.99 100.95 75.98 99.89 75.98 C90.21 75.9 80.53 75.81 70.85 75.71 C65.87 75.66 60.89 75.62 55.91 75.58 C51.11 75.54 46.3 75.49 41.5 75.44 C39.67 75.42 37.84 75.41 36.01 75.4 C33.44 75.38 30.87 75.35 28.3 75.32 C27.55 75.32 26.79 75.31 26.01 75.31 C17.62 75.18 12.13 72.48 6 67 C-0.5 59.14 -0.28 50.34 -0.2 40.62 C-0.19 39.46 -0.19 38.29 -0.19 37.09 C-0.18 33.4 -0.15 29.7 -0.12 26 C-0.11 23.48 -0.11 20.97 -0.1 18.45 C-0.08 12.3 -0.04 6.15 0 0 Z " fill="#77D4D3" transform="translate(502,324)"/>
<path d="M0 0 C1.51 -0.01 1.51 -0.01 3.05 -0.02 C4.17 -0.02 5.28 -0.03 6.42 -0.03 C8.17 -0.04 8.17 -0.04 9.95 -0.05 C13.82 -0.07 17.69 -0.08 21.56 -0.09 C22.88 -0.1 24.2 -0.1 25.56 -0.1 C31.81 -0.12 38.07 -0.14 44.32 -0.15 C51.55 -0.15 58.77 -0.18 66 -0.22 C71.58 -0.25 77.16 -0.27 82.74 -0.27 C86.07 -0.27 89.41 -0.28 92.74 -0.31 C96.46 -0.33 100.18 -0.33 103.9 -0.32 C105.01 -0.34 106.12 -0.35 107.26 -0.36 C108.27 -0.35 109.28 -0.35 110.32 -0.34 C111.64 -0.34 111.64 -0.34 112.99 -0.35 C115.22 0.15 115.22 0.15 117.01 1.97 C118.79 5.16 118.6 7.83 118.59 11.47 C118.59 12.52 118.59 12.52 118.59 13.59 C118.59 15.06 118.58 16.54 118.56 18.01 C118.54 20.27 118.54 22.53 118.55 24.79 C118.5 35.87 118.5 35.87 116.22 38.15 C113.3 38.38 110.46 38.5 107.53 38.53 C106.67 38.54 105.81 38.56 104.93 38.58 C102.17 38.63 99.42 38.67 96.66 38.71 C93.9 38.75 91.15 38.8 88.39 38.85 C86.67 38.88 84.95 38.91 83.23 38.93 C79.42 38.63 79.42 38.63 76.22 40.15 C76.12 41.7 76.09 43.25 76.08 44.81 C76.07 45.82 76.07 46.83 76.06 47.86 C76.06 48.98 76.05 50.1 76.05 51.24 C76.04 53 76.04 53 76.03 54.78 C76.01 57.99 76 61.2 75.99 64.41 C75.97 67.77 75.95 71.12 75.93 74.48 C75.86 85.91 75.8 97.35 75.75 108.78 C75.72 115.09 75.68 121.4 75.64 127.72 C75.62 131.06 75.6 134.4 75.59 137.74 C75.58 141.47 75.55 145.19 75.53 148.92 C75.53 150.03 75.53 151.15 75.53 152.29 C75.52 153.31 75.51 154.32 75.5 155.36 C75.49 156.24 75.49 157.12 75.48 158.03 C75.22 160.15 75.22 160.15 73.22 162.15 C70.55 162.35 67.97 162.43 65.29 162.41 C64.51 162.41 63.72 162.42 62.91 162.42 C61.24 162.42 59.58 162.42 57.91 162.41 C55.37 162.4 52.82 162.41 50.27 162.42 C48.66 162.42 47.04 162.42 45.42 162.41 C44.66 162.42 43.9 162.42 43.11 162.43 C39.23 162.39 36.6 162.03 33.22 160.15 C33.22 159.53 33.22 158.91 33.21 158.28 C33.11 143.27 33 128.27 32.88 113.26 C32.83 106 32.78 98.75 32.73 91.49 C32.68 85.17 32.64 78.85 32.59 72.53 C32.56 69.18 32.54 65.83 32.51 62.48 C32.49 58.74 32.46 55.01 32.43 51.28 C32.42 49.6 32.42 49.6 32.41 47.89 C32.4 46.88 32.39 45.86 32.38 44.82 C32.38 43.94 32.37 43.06 32.36 42.14 C32.44 40.15 32.44 40.15 31.22 39.15 C28.53 39.02 25.86 38.96 23.17 38.94 C21.51 38.91 19.84 38.88 18.18 38.85 C15.55 38.81 12.91 38.77 10.28 38.75 C7.74 38.72 5.21 38.67 2.67 38.62 C1.89 38.62 1.1 38.62 0.29 38.61 C-2.83 38.54 -5.4 38.31 -8.27 37.05 C-10.55 34.16 -10.28 31.82 -10.27 28.18 C-10.27 27.5 -10.27 26.82 -10.28 26.13 C-10.27 24.7 -10.26 23.27 -10.24 21.84 C-10.21 19.65 -10.22 17.47 -10.23 15.28 C-10.23 13.89 -10.22 12.51 -10.21 11.12 C-10.2 9.85 -10.19 8.59 -10.18 7.29 C-9.78 4.15 -9.78 4.15 -8.37 2.27 C-5.43 0.2 -3.56 0.02 0 0 Z " fill="#0F1012" transform="translate(904.7759857177734,491.8528289794922)"/>
<path d="M0 0 C0.76 0.48 1.52 0.97 2.3 1.46 C4.53 3.3 5.42 4.29 6.25 7.06 C6.11 13.24 3.73 17.2 0.44 22.19 C-0 22.88 -0.44 23.57 -0.89 24.28 C-2.15 26.23 -3.44 28.15 -4.75 30.06 C-5.39 31.05 -6.04 32.04 -6.7 33.05 C-8.75 35.06 -8.75 35.06 -11.59 35.59 C-15.4 34.95 -18.01 33.58 -21.38 31.69 C-30.02 27.1 -38.61 24.73 -48.36 27.17 C-58.07 30.81 -63.27 37.43 -67.64 46.51 C-72.5 57.71 -70.95 66.94 -66.75 78.06 C-63.21 84.77 -57.76 89.6 -50.74 92.47 C-47.11 93.55 -43.52 93.49 -39.75 93.44 C-38.98 93.45 -38.21 93.46 -37.42 93.47 C-29.34 93.43 -23.78 90.25 -17.06 85.95 C-13.87 84.72 -12.02 85.17 -8.75 86.06 C-6.82 88.06 -6.82 88.06 -5.17 90.65 C-4.57 91.58 -3.97 92.51 -3.34 93.47 C-2.74 94.45 -2.13 95.43 -1.5 96.44 C-0.88 97.41 -0.25 98.38 0.39 99.38 C1.55 101.19 2.69 103 3.83 104.81 C4.95 106.58 6.09 108.32 7.25 110.06 C7.6 112.54 7.6 112.54 7.25 115.06 C0.69 123.13 -13.03 128.26 -22.75 131.06 C-27.09 131.42 -31.43 131.39 -35.79 131.38 C-37.85 131.38 -39.91 131.4 -41.97 131.42 C-61.44 131.52 -77.75 124.61 -91.75 111.06 C-105.05 96.42 -111.55 78.74 -111.75 59.06 C-111.51 54.58 -110.81 50.42 -109.75 46.06 C-109.48 44.9 -109.21 43.74 -108.93 42.54 C-104.5 25.37 -94.03 9.2 -78.75 -0.31 C-53.53 -14.25 -24.64 -16.02 0 0 Z " fill="#0F1012" transform="translate(638.75,524.9375)"/>
<path d="M0 0 C1.28 0.7 1.28 0.7 2.59 1.42 C8.65 4.88 13.1 8.14 17 14 C16.86 19.79 13.95 24.2 11 29 C10.51 29.8 10.02 30.61 9.51 31.44 C4.23 39.73 4.23 39.73 0 42 C-5.11 42.3 -7.83 40.53 -11.75 37.56 C-17.68 33.2 -23.29 31.38 -30.67 32.35 C-38.14 34.23 -42.78 38.08 -47.38 44.12 C-50.13 49 -50.15 53.33 -50.16 58.84 C-50.16 59.63 -50.17 60.41 -50.17 61.22 C-50.18 62.93 -50.19 64.63 -50.2 66.33 C-50.21 69.03 -50.23 71.72 -50.25 74.41 C-50.31 82.07 -50.37 89.73 -50.4 97.39 C-50.42 102.07 -50.46 106.76 -50.5 111.44 C-50.52 113.23 -50.53 115.02 -50.53 116.8 C-50.53 119.3 -50.56 121.79 -50.58 124.29 C-50.58 125.03 -50.58 125.77 -50.57 126.53 C-50.62 129.44 -50.67 131.5 -52.31 133.96 C-55.17 135.72 -58.3 135.47 -61.55 135.47 C-62.29 135.48 -63.03 135.48 -63.79 135.49 C-65.35 135.5 -66.92 135.51 -68.48 135.5 C-70.86 135.5 -73.24 135.54 -75.62 135.59 C-77.14 135.59 -78.66 135.59 -80.18 135.59 C-80.89 135.61 -81.6 135.63 -82.33 135.64 C-85.77 135.6 -87.81 135.12 -90.69 133.21 C-94.2 128.33 -93.68 123.82 -93.62 117.95 C-93.62 116.72 -93.63 115.5 -93.63 114.24 C-93.64 110.9 -93.63 107.56 -93.61 104.21 C-93.59 100.71 -93.59 97.21 -93.59 93.71 C-93.59 87.83 -93.57 81.95 -93.54 76.06 C-93.51 69.27 -93.5 62.48 -93.5 55.68 C-93.51 49.14 -93.5 42.6 -93.48 36.05 C-93.47 33.27 -93.47 30.49 -93.47 27.71 C-93.47 23.83 -93.45 19.94 -93.42 16.05 C-93.42 14.9 -93.43 13.75 -93.43 12.56 C-93.42 11.5 -93.41 10.44 -93.39 9.35 C-93.39 8.43 -93.39 7.51 -93.38 6.57 C-92.92 3.45 -91.82 1.55 -90 -1 C-85.41 -3.87 -79.75 -3.52 -74.5 -3.62 C-73.56 -3.68 -72.63 -3.74 -71.66 -3.8 C-68.89 -3.85 -66.66 -3.78 -64 -3 C-61.59 -0.65 -60.34 1.94 -59 5 C-58.22 6.47 -58.22 6.47 -57.42 7.97 C-57.01 8.8 -56.61 9.64 -56.19 10.5 C-55.77 11.36 -55.35 12.21 -54.92 13.09 C-54.62 13.72 -54.31 14.35 -54 15 C-50.76 12.64 -48.11 10.08 -45.5 7.06 C-44.9 6.37 -44.3 5.68 -43.68 4.96 C-42.85 3.99 -42.85 3.99 -42 3 C-38.09 -1.51 -34.6 -3.35 -29 -5 C-28.42 -5.2 -27.83 -5.41 -27.23 -5.62 C-18.43 -7.11 -7.61 -4.37 0 0 Z " fill="#0F1012" transform="translate(348,519)"/>
<path d="M0 0 C1.11 -0.01 1.11 -0.01 2.25 -0.02 C3.81 -0.04 5.38 -0.05 6.94 -0.06 C9.34 -0.07 11.73 -0.12 14.12 -0.16 C15.64 -0.17 17.16 -0.18 18.69 -0.19 C19.4 -0.21 20.11 -0.22 20.85 -0.24 C24.05 -0.23 26 -0.07 28.6 1.87 C30.96 4.96 30.91 6.76 30.9 10.63 C30.91 11.94 30.92 13.26 30.93 14.61 C30.92 16.07 30.91 17.53 30.9 18.98 C30.9 20.52 30.9 22.05 30.91 23.58 C30.92 27.75 30.9 31.91 30.88 36.08 C30.86 40.43 30.87 44.79 30.87 49.14 C30.87 56.46 30.85 63.77 30.82 71.08 C30.79 79.54 30.78 88 30.78 96.47 C30.78 104.6 30.77 112.73 30.76 120.86 C30.75 124.33 30.74 127.79 30.74 131.26 C30.74 135.33 30.73 139.41 30.71 143.49 C30.7 144.99 30.7 146.48 30.7 147.98 C30.7 150.02 30.69 152.06 30.68 154.1 C30.67 155.25 30.67 156.39 30.67 157.57 C30.41 160.24 30.41 160.24 28.41 162.24 C25.56 162.43 22.82 162.49 19.97 162.47 C19.14 162.47 18.3 162.47 17.44 162.47 C15.67 162.46 13.9 162.46 12.13 162.44 C9.42 162.43 6.71 162.42 4 162.42 C2.28 162.42 0.56 162.41 -1.15 162.41 C-1.97 162.41 -2.78 162.4 -3.62 162.4 C-9.36 162.35 -9.36 162.35 -11.59 161.24 C-12.68 157.96 -12.72 155.55 -12.72 152.1 C-12.73 150.81 -12.73 149.52 -12.74 148.2 C-12.74 146.77 -12.74 145.34 -12.74 143.92 C-12.74 142.41 -12.74 140.91 -12.75 139.41 C-12.75 135.33 -12.76 131.25 -12.76 127.17 C-12.76 123.77 -12.76 120.36 -12.77 116.96 C-12.77 108.93 -12.78 100.89 -12.78 92.86 C-12.77 84.57 -12.79 76.28 -12.8 67.99 C-12.81 60.88 -12.82 53.77 -12.82 46.65 C-12.82 42.4 -12.82 38.15 -12.83 33.9 C-12.84 29.91 -12.84 25.91 -12.83 21.92 C-12.83 20.45 -12.84 18.98 -12.84 17.51 C-12.85 15.51 -12.84 13.51 -12.84 11.51 C-12.84 10.39 -12.84 9.27 -12.84 8.11 C-12.59 5.24 -12.24 3.59 -10.59 1.24 C-7.02 0.05 -3.72 0.04 0 0 Z " fill="#0F1012" transform="translate(838.58984375,491.76171875)"/>
<path d="M0 0 C8 7.66 12.08 15.94 13 27 C13.12 38.35 11.63 47.52 3.69 55.94 C-1.89 61.45 -7.31 63.38 -14.98 63.46 C-16.2 63.45 -16.2 63.45 -17.44 63.44 C-18.25 63.46 -19.05 63.48 -19.88 63.5 C-29.19 63.49 -35.35 59.34 -42.02 53.14 C-48.09 46.58 -50.53 37.38 -50.32 28.56 C-48.84 16.74 -44.34 7.38 -35.3 -0.27 C-24.99 -8.03 -10.28 -7.66 0 0 Z " fill="#F9FCFE" transform="translate(456,556)"/>
<path d="M0 0 C0.94 -0 1.87 -0.01 2.84 -0.01 C5.97 -0.02 9.11 -0.03 12.25 -0.03 C14.5 -0.04 16.75 -0.04 18.99 -0.05 C26.38 -0.07 33.77 -0.08 41.16 -0.09 C43.7 -0.1 46.24 -0.1 48.79 -0.1 C59.37 -0.12 69.96 -0.13 80.55 -0.14 C83.29 -0.14 86.04 -0.15 88.78 -0.15 C89.46 -0.15 90.14 -0.15 90.85 -0.15 C101.89 -0.16 112.93 -0.18 123.98 -0.22 C135.33 -0.25 146.68 -0.27 158.03 -0.27 C164.4 -0.27 170.77 -0.28 177.14 -0.31 C183.13 -0.33 189.12 -0.33 195.12 -0.32 C197.31 -0.32 199.51 -0.33 201.7 -0.34 C226.94 -0.49 226.94 -0.49 233.92 6.25 C240.91 14.24 242.2 23.01 242.03 33.31 C242.03 34.34 242.03 35.37 242.02 36.43 C242 39.69 241.97 42.95 241.93 46.21 C241.91 48.43 241.9 50.66 241.89 52.88 C241.85 58.3 241.8 63.72 241.74 69.15 C240.05 68.18 238.39 67.17 236.74 66.15 C235.83 65.61 234.91 65.08 233.97 64.53 C230.63 60.96 231.07 57.76 231.14 53.03 C231.13 51.7 231.13 51.7 231.12 50.34 C231.09 47.51 231.1 44.67 231.12 41.83 C231.12 39.01 231.12 36.18 231.1 33.36 C231.08 31.6 231.09 29.85 231.11 28.09 C231.08 22.69 230.32 18.93 227.74 14.15 C222.05 9.65 215.61 10 208.7 10.01 C207.78 10 206.87 10 205.93 10 C202.87 9.99 199.81 9.99 196.75 9.99 C194.56 9.98 192.37 9.98 190.17 9.97 C184.22 9.96 178.26 9.95 172.3 9.95 C168.58 9.94 164.85 9.94 161.13 9.94 C149.48 9.92 137.83 9.91 126.18 9.91 C124.84 9.91 123.5 9.91 122.16 9.91 C121.49 9.91 120.83 9.91 120.14 9.91 C109.37 9.9 98.61 9.88 87.84 9.86 C76.78 9.84 65.71 9.83 54.65 9.82 C48.44 9.82 42.23 9.82 36.02 9.8 C30.18 9.78 24.34 9.78 18.5 9.79 C16.36 9.79 14.22 9.79 12.08 9.78 C9.15 9.76 6.22 9.77 3.29 9.78 C2.45 9.77 1.61 9.76 0.74 9.76 C-5.35 9.81 -12.11 10.45 -16.91 14.56 C-21.48 19.94 -21.65 25.66 -21.52 32.37 C-21.53 34.14 -21.53 35.92 -21.54 37.69 C-21.53 40.46 -21.51 43.22 -21.47 45.99 C-21.44 48.68 -21.45 51.37 -21.46 54.06 C-21.44 54.88 -21.41 55.7 -21.39 56.55 C-21.43 60.02 -21.51 62.25 -23.8 64.97 C-25.56 66.48 -27.36 67.82 -29.26 69.15 C-30.25 70.14 -30.25 70.14 -31.26 71.15 C-32.05 68.34 -32.39 65.82 -32.42 62.9 C-32.43 62.08 -32.44 61.25 -32.45 60.39 C-32.45 59.51 -32.46 58.62 -32.46 57.7 C-32.47 56.78 -32.47 55.85 -32.48 54.9 C-32.49 52.94 -32.5 50.98 -32.5 49.02 C-32.51 46.05 -32.54 43.09 -32.57 40.12 C-32.58 38.21 -32.58 36.3 -32.59 34.39 C-32.6 33.51 -32.61 32.64 -32.62 31.73 C-32.6 23.59 -31.03 15.31 -25.91 8.75 C-18.2 1.28 -10.23 -0 0 0 Z " fill="#77D4D3" transform="translate(534.2589416503906,192.8528289794922)"/>
<path d="M0 0 C31.65 -0.05 63.31 -0.08 94.96 -0.1 C98.69 -0.1 102.43 -0.11 106.16 -0.11 C106.91 -0.11 107.65 -0.11 108.42 -0.11 C120.47 -0.12 132.51 -0.14 144.56 -0.15 C156.92 -0.17 169.28 -0.18 181.63 -0.19 C189.26 -0.19 196.89 -0.2 204.52 -0.22 C210.36 -0.23 216.21 -0.23 222.05 -0.23 C224.45 -0.23 226.86 -0.23 229.26 -0.24 C232.53 -0.25 235.8 -0.25 239.07 -0.24 C240.02 -0.25 240.98 -0.25 241.97 -0.26 C242.84 -0.25 243.72 -0.25 244.62 -0.25 C245.75 -0.25 245.75 -0.25 246.91 -0.25 C249.29 0.03 250.92 0.82 253 2 C251.85 3.17 250.68 4.31 249.5 5.44 C248.85 6.08 248.2 6.71 247.53 7.37 C241.97 10.95 234.11 10.14 227.66 10.13 C226.3 10.13 226.3 10.13 224.91 10.13 C221.89 10.14 218.86 10.13 215.84 10.13 C213.66 10.13 211.49 10.13 209.31 10.13 C203.42 10.14 197.52 10.14 191.62 10.13 C185.45 10.13 179.27 10.13 173.1 10.14 C162.73 10.14 152.36 10.14 141.99 10.13 C130 10.12 118.02 10.13 106.04 10.13 C95.74 10.14 85.45 10.14 75.15 10.13 C69.01 10.13 62.86 10.13 56.71 10.14 C50.94 10.14 45.16 10.14 39.38 10.13 C37.26 10.13 35.14 10.13 33.02 10.13 C30.13 10.14 27.23 10.13 24.34 10.13 C23.5 10.13 22.67 10.13 21.81 10.13 C7.26 10.09 7.26 10.09 3 6.12 C2.42 5.61 1.85 5.1 1.25 4.57 C0 3 0 3 0 0 Z " fill="#FAFDFF" transform="translate(514,380)"/>
<path d="M0 0 C4.09 1.04 6.3 3.02 9.12 6.06 C12.42 9.48 15.79 12.54 19.5 15.5 C23.88 19 27.78 22.73 31.68 26.75 C34.21 29.2 36.87 31.37 39.62 33.56 C51.34 43.02 51.34 43.02 52.62 48.79 C51.67 53.72 48.56 55.91 44.88 59.12 C44.15 59.78 43.42 60.44 42.67 61.11 C37.61 65.67 32.45 70.1 27.24 74.49 C21.99 78.94 16.97 83.63 11.97 88.37 C5.55 94.45 5.55 94.45 3 96 C-0.25 95.69 -0.25 95.69 -3 95 C-3.68 92.73 -3.68 92.73 -4 90 C-2.92 88.08 -2.92 88.08 -1.19 86.25 C-0.22 85.22 -0.22 85.22 0.77 84.18 C4.73 80.31 8.83 76.63 13 73 C13.67 72.41 14.34 71.83 15.03 71.23 C16.31 70.11 17.59 69 18.87 67.88 C21.46 65.6 24.01 63.27 26.56 60.94 C30.65 57.21 34.78 53.57 39 50 C37.85 45.25 35.14 43.14 31.54 40.15 C28.44 37.53 25.47 34.77 22.5 32 C19.02 28.77 15.53 25.55 11.94 22.44 C11.34 21.91 10.74 21.39 10.12 20.84 C8.92 19.8 7.71 18.76 6.48 17.74 C4.79 16.32 3.11 14.88 1.44 13.44 C0.89 12.99 0.34 12.54 -0.23 12.08 C-1.75 10.75 -1.75 10.75 -4 8 C-4.03 4.79 -4.03 4.79 -3 2 C-2.01 1.34 -1.02 0.68 0 0 Z " fill="#77D4D3" transform="translate(740,245)"/>
<path d="M0 0 C1.75 1.56 1.75 1.56 2.61 4.38 C2.75 7.56 2.75 7.56 1.16 9.87 C0.39 10.57 -0.39 11.28 -1.19 12 C-2.44 13.16 -2.44 13.16 -3.73 14.35 C-4.98 15.44 -4.98 15.44 -6.25 16.56 C-6.9 17.14 -7.54 17.71 -8.21 18.31 C-9.47 19.42 -10.74 20.52 -12.02 21.62 C-14.81 24.05 -17.53 26.55 -20.25 29.06 C-26.78 35.07 -33.41 40.92 -40.25 46.56 C-39.74 50.66 -37.74 52.25 -34.69 54.88 C-33.78 55.67 -32.87 56.46 -31.93 57.27 C-31.05 58.03 -30.16 58.78 -29.25 59.56 C-27.92 60.73 -26.58 61.89 -25.25 63.06 C-24.61 63.62 -23.97 64.18 -23.31 64.75 C-20.08 67.59 -16.89 70.48 -13.7 73.37 C-11.5 75.34 -9.26 77.27 -7 79.19 C0.46 85.75 0.46 85.75 2.75 89.56 C2.62 92.5 2.62 92.5 1.75 94.56 C-2.66 95.84 -2.66 95.84 -5.14 94.66 C-11.06 89.74 -16.65 84.49 -22.23 79.19 C-26.92 74.75 -31.73 70.64 -36.79 66.62 C-40.16 63.8 -43.19 60.72 -46.23 57.56 C-48.03 55.78 -49.83 54.35 -51.88 52.88 C-54.25 50.56 -54.25 50.56 -54.56 47.69 C-51.46 40.3 -44.08 35.77 -38.01 30.88 C-35.44 28.72 -33.09 26.47 -30.75 24.06 C-26.73 19.93 -22.4 16.37 -17.89 12.77 C-15.4 10.69 -13.14 8.52 -10.88 6.19 C-4.04 -0.79 -4.04 -0.79 0 0 Z " fill="#77D4D3" transform="translate(540.25,245.4375)"/>
<path d="M0 0 C0.86 -0.01 1.73 -0.01 2.62 -0.02 C5.48 -0.03 8.33 -0.03 11.19 -0.03 C13.18 -0.03 15.16 -0.03 17.15 -0.04 C21.3 -0.05 25.46 -0.05 29.62 -0.04 C34.96 -0.04 40.3 -0.05 45.63 -0.08 C49.73 -0.09 53.83 -0.09 57.93 -0.09 C59.89 -0.09 61.86 -0.09 63.83 -0.1 C66.58 -0.12 69.33 -0.11 72.07 -0.1 C72.89 -0.11 73.71 -0.11 74.55 -0.12 C80.02 -0.07 80.02 -0.07 82.55 1.6 C84.06 4.17 83.79 6.37 83.54 9.27 C81.69 11.12 79.07 10.41 76.61 10.42 C75.33 10.42 75.33 10.42 74.03 10.42 C73.13 10.42 72.24 10.43 71.32 10.43 C68.35 10.44 65.39 10.44 62.42 10.44 C60.37 10.45 58.31 10.45 56.26 10.45 C51.95 10.46 47.63 10.46 43.32 10.46 C37.79 10.46 32.25 10.47 26.72 10.49 C22.47 10.5 18.23 10.5 13.98 10.5 C11.94 10.5 9.9 10.51 7.86 10.52 C5.01 10.53 2.16 10.52 -0.69 10.52 C-1.54 10.52 -2.39 10.53 -3.26 10.53 C-7.18 10.51 -9.13 10.5 -12.46 8.27 C-12.15 5.4 -12.15 5.4 -11.46 2.27 C-7.62 -0.29 -4.46 -0.01 0 0 Z " fill="#77D4D3" transform="translate(572.462890625,278.725341796875)"/>
<path d="M0 0 C1.29 -0.01 2.58 -0.02 3.91 -0.03 C5.32 -0.03 6.74 -0.03 8.15 -0.03 C9.59 -0.03 11.04 -0.03 12.48 -0.04 C15.51 -0.05 18.54 -0.05 21.57 -0.04 C25.46 -0.04 29.34 -0.05 33.22 -0.08 C36.21 -0.09 39.2 -0.09 42.18 -0.09 C43.61 -0.09 45.04 -0.09 46.48 -0.1 C48.48 -0.12 50.48 -0.11 52.48 -0.1 C54.19 -0.1 54.19 -0.1 55.93 -0.1 C58.74 0.27 58.74 0.27 60.62 1.6 C62.32 4.14 62 6.3 61.74 9.27 C59.9 11.12 56.9 10.41 54.43 10.42 C53.44 10.42 53.44 10.42 52.44 10.43 C50.25 10.44 48.06 10.44 45.87 10.44 C44.36 10.45 42.84 10.45 41.33 10.45 C38.14 10.46 34.96 10.46 31.78 10.46 C27.7 10.46 23.61 10.47 19.53 10.49 C16.4 10.5 13.27 10.5 10.13 10.5 C8.63 10.5 7.12 10.51 5.62 10.52 C3.52 10.53 1.41 10.52 -0.69 10.52 C-2.49 10.52 -2.49 10.52 -4.32 10.52 C-7.26 10.27 -7.26 10.27 -10.26 8.27 C-9.95 5.4 -9.95 5.4 -9.26 2.27 C-5.72 -0.09 -4.2 0.02 0 0 Z " fill="#77D4D3" transform="translate(570.259765625,297.725341796875)"/>
<path d="M0 0 C0.79 0 1.58 0 2.4 0 C3.75 -0 3.75 -0 5.12 -0.01 C6.09 0 7.06 0.01 8.06 0.02 C9.06 0.02 10.05 0.02 11.07 0.02 C13.18 0.02 15.28 0.03 17.38 0.04 C20.61 0.06 23.84 0.06 27.07 0.06 C29.11 0.07 31.15 0.07 33.19 0.08 C34.16 0.08 35.13 0.08 36.13 0.08 C37.03 0.09 37.92 0.1 38.85 0.1 C39.64 0.11 40.43 0.11 41.24 0.11 C43.06 0.25 43.06 0.25 44.06 1.25 C44.13 3.43 44.14 5.62 44.12 7.81 C44.11 9.01 44.1 10.2 44.09 11.44 C44.08 12.37 44.07 13.29 44.06 14.25 C37.38 14.27 30.71 14.29 24.03 14.3 C21.76 14.31 19.49 14.31 17.21 14.32 C13.95 14.33 10.7 14.34 7.44 14.34 C6.41 14.35 5.39 14.36 4.34 14.36 C3.4 14.36 2.46 14.36 1.49 14.36 C0.65 14.36 -0.18 14.37 -1.04 14.37 C-2.94 14.25 -2.94 14.25 -3.94 13.25 C-4.07 11.44 -4.12 9.62 -4.13 7.81 C-4.14 6.82 -4.16 5.83 -4.17 4.81 C-3.89 1.69 -3.24 0.41 0 0 Z " fill="#FAFDFF" transform="translate(618.9421539306641,398.7527618408203)"/>
<path d="M0 0 C1.07 -0.01 2.14 -0.03 3.25 -0.04 C4.97 -0.04 4.97 -0.04 6.73 -0.05 C7.92 -0.05 9.11 -0.06 10.33 -0.07 C12.83 -0.08 15.34 -0.08 17.84 -0.08 C21.69 -0.08 25.53 -0.12 29.37 -0.16 C31.81 -0.16 34.24 -0.17 36.67 -0.17 C37.82 -0.18 38.98 -0.2 40.17 -0.21 C41.23 -0.21 42.3 -0.2 43.4 -0.2 C44.34 -0.2 45.28 -0.2 46.25 -0.2 C48.64 0.29 48.64 0.29 50.45 2.15 C51.88 4.73 51.95 6.38 51.64 9.29 C49.9 11.03 47.52 10.44 45.15 10.45 C43.4 10.47 43.4 10.47 41.6 10.48 C40.33 10.49 39.05 10.49 37.74 10.49 C36.44 10.5 35.14 10.51 33.8 10.51 C31.04 10.52 28.28 10.53 25.52 10.53 C21.98 10.54 18.45 10.56 14.91 10.59 C11.54 10.61 8.17 10.61 4.8 10.62 C3.53 10.63 2.26 10.64 0.95 10.66 C-0.82 10.65 -0.82 10.65 -2.62 10.65 C-4.18 10.65 -4.18 10.65 -5.77 10.66 C-8.7 10.24 -9.58 9.6 -11.36 7.29 C-9.89 2.64 -9.89 2.64 -7.62 1.14 C-4.95 0.13 -2.85 0.02 0 0 Z " fill="#77D4D3" transform="translate(604.363525390625,316.70947265625)"/>
<path d="M0 0 C0.99 -0.01 1.98 -0.03 3 -0.04 C4.07 -0.04 5.13 -0.04 6.23 -0.05 C7.87 -0.06 7.87 -0.06 9.55 -0.07 C11.87 -0.08 14.19 -0.08 16.5 -0.08 C20.06 -0.08 23.61 -0.12 27.16 -0.16 C29.41 -0.16 31.66 -0.17 33.91 -0.17 C34.98 -0.18 36.05 -0.2 37.14 -0.21 C38.62 -0.2 38.62 -0.2 40.14 -0.2 C41.01 -0.2 41.88 -0.2 42.77 -0.2 C45 0.29 45 0.29 46.83 2.12 C48.46 5.13 47.81 7.05 47 10.29 C39.37 10.34 31.73 10.38 24.1 10.4 C21.5 10.41 18.9 10.42 16.3 10.44 C12.57 10.47 8.84 10.48 5.11 10.49 C3.36 10.5 3.36 10.5 1.58 10.52 C0.5 10.52 -0.59 10.52 -1.7 10.52 C-2.65 10.52 -3.6 10.53 -4.59 10.53 C-7 10.29 -7 10.29 -10 8.29 C-9.75 5.42 -9.75 5.42 -9 2.29 C-6.03 0.28 -3.53 0.03 0 0 Z " fill="#77D4D3" transform="translate(684.996337890625,297.70947265625)"/>
<path d="M0 0 C1.49 -0.01 1.49 -0.01 3 -0.03 C4.07 -0.02 5.13 -0.02 6.23 -0.01 C7.87 -0.01 7.87 -0.01 9.55 -0.02 C11.87 -0.02 14.19 -0.02 16.5 -0 C20.06 0.01 23.61 -0 27.16 -0.02 C29.41 -0.02 31.66 -0.02 33.91 -0.01 C34.98 -0.02 36.05 -0.02 37.14 -0.03 C38.13 -0.02 39.12 -0.01 40.14 0 C41.01 0 41.88 0 42.77 0.01 C45.5 0.47 46.39 1.17 48 3.39 C48.25 6.51 48.25 6.51 48 9.39 C46.33 11.07 44.27 10.52 41.96 10.53 C40.89 10.54 39.82 10.55 38.71 10.55 C36.95 10.55 36.95 10.55 35.16 10.56 C33.97 10.56 32.78 10.56 31.55 10.57 C29.02 10.57 26.49 10.57 23.97 10.57 C20.09 10.58 16.21 10.59 12.33 10.61 C9.88 10.62 7.43 10.62 4.98 10.62 C3.22 10.63 3.22 10.63 1.44 10.64 C-0.18 10.64 -0.18 10.64 -1.83 10.63 C-3.26 10.63 -3.26 10.63 -4.71 10.64 C-7 10.39 -7 10.39 -9 8.39 C-9.37 5.95 -9.37 5.95 -9 3.39 C-6.07 0.59 -4 0.01 0 0 Z " fill="#77D4D3" transform="translate(674.996337890625,278.61181640625)"/>
<path d="M0 0 C0.86 -0 1.71 -0 2.6 -0.01 C4.41 -0.01 6.22 -0 8.03 0 C10.8 0.02 13.58 0 16.35 -0.01 C18.11 -0.01 19.87 -0 21.62 0 C22.46 -0 23.29 -0.01 24.15 -0.01 C30.02 0.04 30.02 0.04 32.25 2.27 C32.43 5.83 32.43 5.83 32.25 9.27 C30.11 11.4 25.25 10.43 22.29 10.43 C21.38 10.44 20.48 10.44 19.55 10.44 C17.64 10.45 15.73 10.45 13.82 10.45 C10.89 10.45 7.96 10.47 5.04 10.49 C3.18 10.49 1.33 10.5 -0.53 10.5 C-1.41 10.5 -2.28 10.51 -3.19 10.52 C-4.01 10.51 -4.82 10.51 -5.67 10.51 C-6.38 10.51 -7.1 10.51 -7.84 10.51 C-9.75 10.27 -9.75 10.27 -12.75 8.27 C-12.44 5.39 -12.44 5.39 -11.75 2.27 C-7.85 -0.34 -4.53 -0.02 0 0 Z " fill="#77D4D3" transform="translate(572.75390625,259.734375)"/>
<path d="M0 0 C0.77 -0.03 1.54 -0.06 2.33 -0.09 C4.57 -0.09 4.57 -0.09 8.44 0.5 C10.53 2.72 10.53 2.72 11.44 5.5 C11.16 7.18 10.83 8.85 10.44 10.5 C7 10.56 3.56 10.59 0.12 10.62 C-0.85 10.64 -1.83 10.66 -2.83 10.68 C-3.77 10.68 -4.71 10.69 -5.68 10.7 C-6.54 10.71 -7.4 10.72 -8.29 10.73 C-10.56 10.5 -10.56 10.5 -13.56 8.5 C-13.26 5.69 -13 3.97 -11.05 1.86 C-7.4 -0.14 -4.1 -0.01 0 0 Z " fill="#77D4D3" transform="translate(654.5625,297.5)"/>
<path d="M0 0 C0.72 -0.02 1.44 -0.04 2.18 -0.06 C5.53 -0.06 7.42 -0.05 9.92 2.3 C11.14 4.87 11.24 6.62 10.94 9.44 C9.32 11.05 7.55 10.57 5.32 10.57 C3.91 10.57 3.91 10.57 2.48 10.57 C1.5 10.57 0.51 10.57 -0.5 10.56 C-1.97 10.57 -1.97 10.57 -3.47 10.57 C-4.41 10.57 -5.34 10.57 -6.31 10.57 C-7.6 10.57 -7.6 10.57 -8.92 10.57 C-11.06 10.44 -11.06 10.44 -13.06 9.44 C-12.58 4 -12.58 4 -10.52 1.77 C-7.07 -0.1 -3.82 -0.04 0 0 Z " fill="#77D4D3" transform="translate(573.0625,316.5625)"/>
<path d="M0 0 C1.01 -0.02 1.01 -0.02 2.05 -0.05 C4.01 -0.05 4.01 -0.05 7.31 0.31 C9.74 3.96 9.47 6.02 9.31 10.31 C5.88 10.4 2.44 10.45 -1 10.5 C-2.46 10.54 -2.46 10.54 -3.96 10.58 C-5.37 10.59 -5.37 10.59 -6.8 10.61 C-7.66 10.62 -8.53 10.64 -9.42 10.65 C-12.14 10.24 -12.99 9.42 -14.69 7.31 C-14 4.94 -14 4.94 -12.69 2.31 C-8.53 0.05 -4.67 0.01 0 0 Z " fill="#77D4D3" transform="translate(679.6875,316.6875)"/>
</svg>
